<svg width="56" height="56" viewBox="0 0 56 56" fill="none" xmlns="http://www.w3.org/2000/svg">
<path d="M1.90759 52.4079C2.29904 53.511 3.34242 54.2486 4.51316 54.25H43.1974C44.3681 54.2486 45.4115 53.511 45.8029 52.4079H1.90759Z" fill="black"/>
<path d="M51.4868 18.3289H1.84211C1.7795 19.237 1.75 20.1631 1.75 21.0921C1.75 32.2534 6.17105 42.4541 13.3081 47.8026H34.4006C38.6288 44.6333 41.8931 39.7539 43.8608 33.9868H47.8026C51.3616 33.9829 54.246 31.0985 54.25 27.5395V21.0921C54.25 19.5663 53.0127 18.3289 51.4868 18.3289ZM52.4079 27.5395C52.4047 30.0817 50.3449 32.1415 47.8026 32.1447H44.4383C45.4525 28.5483 45.9645 24.8288 45.9605 21.0921C45.9605 20.7827 45.9357 20.4798 45.9289 20.1711H51.4868C51.9956 20.1711 52.4079 20.5834 52.4079 21.0921V27.5395Z" fill="black"/>
<path d="M22.9709 12.8026H24.8131C24.8131 12.2737 25.0059 12.051 25.4416 11.597C26.1651 10.9764 26.5818 10.0701 26.5818 9.11662C26.5818 8.16319 26.1651 7.25689 25.4416 6.63626C25.0059 6.18221 24.8131 5.95914 24.8131 5.43421C24.8131 4.90928 25.0059 4.6855 25.4405 4.23217C26.1597 3.60722 26.5756 2.70307 26.5818 1.75H24.7397C24.7397 2.27673 24.5468 2.49872 24.1122 2.95313C23.3883 3.5734 22.9717 4.47862 22.9717 5.43205C22.9717 6.38477 23.3883 7.29071 24.1122 7.91098C24.5479 8.36503 24.7404 8.58774 24.7404 9.11662C24.7404 9.64515 24.5479 9.86822 24.1122 10.3223C23.3944 10.9476 22.9789 11.8506 22.9709 12.8026Z" fill="#C82400"/>
<path d="M12.8394 12.8026H14.6815C14.6815 12.2737 14.8743 12.051 15.31 11.597C16.0335 10.9764 16.4502 10.0701 16.4502 9.11662C16.4502 8.16319 16.0335 7.25689 15.31 6.63626C14.8743 6.18221 14.6815 5.95914 14.6815 5.43421C14.6815 4.90928 14.8743 4.6855 15.3089 4.23217C16.0281 3.60722 16.4441 2.70307 16.4502 1.75H14.6081C14.6081 2.27673 14.4152 2.49872 13.9806 2.95313C13.2567 3.5734 12.8401 4.47862 12.8401 5.43205C12.8401 6.38477 13.2567 7.29071 13.9806 7.91098C14.4163 8.36503 14.6088 8.58774 14.6088 9.11662C14.6088 9.64515 14.4163 9.86822 13.9806 10.3223C13.2628 10.9476 12.8473 11.8506 12.8394 12.8026Z" fill="#C82400"/>
<path d="M33.1025 12.8026H34.9446C34.9446 12.2737 35.1375 12.051 35.5732 11.597C36.2967 10.9764 36.7134 10.0701 36.7134 9.11662C36.7134 8.16319 36.2967 7.25689 35.5732 6.63626C35.1375 6.18221 34.9446 5.95914 34.9446 5.43421C34.9446 4.90928 35.1375 4.6855 35.5721 4.23217C36.2913 3.60722 36.7072 2.70307 36.7134 1.75H34.8712C34.8712 2.27673 34.6784 2.49872 34.2438 2.95313C33.5199 3.5734 33.1033 4.47862 33.1033 5.43205C33.1033 6.38477 33.5199 7.29071 34.2438 7.91098C34.6795 8.36503 34.872 8.58774 34.872 9.11662C34.872 9.64515 34.6795 9.86822 34.2438 10.3223C33.526 10.9476 33.1105 11.8506 33.1025 12.8026Z" fill="#C82400"/>
</svg>
