<svg width="288" height="480" viewBox="0 0 288 480" fill="none" xmlns="http://www.w3.org/2000/svg">
<path d="M63.7031 304C28.5391 304.039 0.0390625 332.539 0 367.703V472C0 476.418 3.58203 480 8 480H280C284.418 480 288 476.418 288 472V367.703C287.98 354.844 284.062 342.289 276.762 331.703C283.969 324.281 288 314.344 288 304V272C288 267.582 284.418 264 280 264H222.23C243.824 242.984 256.004 214.133 256 184V31.4062C255.98 14.0703 241.93 0.0195312 224.594 0H63.4062C46.0703 0.0195312 32.0195 14.0703 32 31.4062V184C32.0586 227.207 56.9648 266.523 96 285.039V304H63.7031ZM272 464H240V432H272V464ZM272 416H256V343.199C258.582 342.672 261.105 341.891 263.535 340.863C269.004 348.75 271.953 358.109 272 367.703V416ZM224 280H272V304C272 317.254 261.254 328 248 328C234.746 328 224 317.254 224 304V280ZM240 343.199V416H232C227.582 416 224 419.582 224 424V464H80V380.703L147.887 342.992L147.992 342.91L148.121 342.855L186.215 320H211.391C216.605 331.914 227.266 340.562 240 343.199ZM136 321.871L112 307.473V291.281C119.816 293.598 127.867 295.043 136 295.594V321.871ZM152 321.871V295.594C160.133 295.043 168.184 293.598 176 291.281V307.473L152 321.871ZM192 304V285.039C197.578 282.398 202.93 279.305 208 275.785V304H192ZM48 31.4062C48.0078 22.9023 54.9023 16.0078 63.4062 16H72V64H64V80H80C84.418 80 88 76.418 88 72V16H112V72H128V16H160V72H176V16H200V72C200 76.418 203.582 80 208 80H224V64H216V16H224.594C233.098 16.0078 239.992 22.9023 240 31.4062V96H48V31.4062ZM48 112H240V128H48V112ZM80.0898 255.434C59.6914 237.289 48.0156 211.297 48 184V144H240V184C239.984 211.297 228.309 237.289 207.91 255.434C207.848 254.18 207.484 252.965 206.855 251.879L187.848 220.199C183.289 212.648 175.117 208.023 166.297 208H161.137C154.758 208.012 148.625 210.465 144 214.855C139.375 210.465 133.242 208.012 126.863 208H121.703C112.883 208.023 104.711 212.648 100.152 220.199L81.1445 251.879C80.5156 252.965 80.1523 254.18 80.0898 255.434ZM184.496 245.703L159.848 242.184C155.09 241.52 151.66 237.281 152 232.492C152.34 227.699 156.332 223.988 161.137 224H166.297C169.504 224.008 172.477 225.691 174.137 228.441L184.496 245.703ZM136 233.137C135.98 237.676 132.645 241.523 128.152 242.184L103.504 245.703L113.902 228.441C115.562 225.691 118.535 224.008 121.742 224H126.902C131.934 224.027 135.996 228.109 136 233.137ZM90.5742 263.711L130.414 258.016C135.531 257.262 140.285 254.93 144.016 251.344C147.746 254.93 152.5 257.262 157.617 258.016L197.457 263.711C165.152 285.43 122.914 285.43 90.6094 263.711H90.5742ZM101.785 320L128 335.734L68.1055 369.008C65.5703 370.422 64 373.098 64 376V464H16V367.703C16.0312 341.371 37.3711 320.031 63.7031 320H101.785Z" fill="#C82400"/>
<path d="M101.859 166.234C101.859 169.211 101.297 172.094 100.172 174.883C99.0703 177.648 97.5703 180.25 95.6719 182.688C93.7734 185.125 91.5586 187.363 89.0273 189.402C86.5195 191.441 83.8594 193.211 81.0469 194.711C78.2344 196.211 75.3516 197.406 72.3984 198.297C69.4453 199.188 66.5977 199.715 63.8555 199.879V160.469L71.0977 157.902V196.188C74.4023 195.227 77.4258 193.844 80.168 192.039C82.9336 190.211 85.3125 188.055 87.3047 185.57C89.2969 183.086 90.8438 180.309 91.9453 177.238C93.0703 174.168 93.6328 170.887 93.6328 167.395C93.6328 165.402 93.375 163.504 92.8594 161.699C92.3672 159.871 91.5938 158.277 90.5391 156.918C89.5078 155.535 88.1953 154.445 86.6016 153.648C85.0078 152.828 83.1094 152.418 80.9062 152.418C79.1016 152.418 77.2852 152.617 75.457 153.016C73.6523 153.414 71.8828 153.977 70.1484 154.703C68.4375 155.406 66.7852 156.25 65.1914 157.234C63.6211 158.219 62.168 159.297 60.832 160.469L59.7422 159.273C61.1484 157.75 62.8125 156.32 64.7344 154.984C66.6562 153.625 68.707 152.441 70.8867 151.434C73.0664 150.402 75.3047 149.594 77.6016 149.008C79.8984 148.398 82.125 148.094 84.2812 148.094C87.1875 148.094 89.7422 148.527 91.9453 149.395C94.1484 150.262 95.9766 151.492 97.4297 153.086C98.9062 154.68 100.008 156.59 100.734 158.816C101.484 161.043 101.859 163.516 101.859 166.234ZM136.137 194.887C135.598 196.035 134.965 196.914 134.238 197.523C133.512 198.133 132.82 198.578 132.164 198.859C131.391 199.188 130.605 199.375 129.809 199.422C128.754 199.422 127.887 199.258 127.207 198.93C126.551 198.602 126.023 198.168 125.625 197.629C125.227 197.09 124.945 196.48 124.781 195.801C124.641 195.121 124.57 194.43 124.57 193.727V182.512C124.383 183.355 124.137 184.363 123.832 185.535C123.551 186.707 123.199 187.938 122.777 189.227C122.355 190.492 121.863 191.758 121.301 193.023C120.738 194.266 120.082 195.379 119.332 196.363C118.605 197.348 117.773 198.156 116.836 198.789C115.922 199.398 114.891 199.703 113.742 199.703C112.781 199.703 112.02 199.516 111.457 199.141C110.918 198.789 110.508 198.285 110.227 197.629C109.969 196.949 109.805 196.152 109.734 195.238C109.688 194.301 109.664 193.27 109.664 192.145V176.887C109.664 176.324 109.535 175.879 109.277 175.551C109.02 175.223 108.68 175.059 108.258 175.059C107.859 175.035 107.414 175.176 106.922 175.48C106.43 175.785 105.949 176.277 105.48 176.957L104.531 175.902C105.07 174.777 105.691 173.91 106.395 173.301C107.098 172.668 107.789 172.211 108.469 171.93C109.242 171.602 110.039 171.414 110.859 171.367C111.914 171.367 112.77 171.531 113.426 171.859C114.105 172.188 114.633 172.621 115.008 173.16C115.406 173.676 115.676 174.273 115.816 174.953C115.98 175.633 116.062 176.324 116.062 177.027V191.582C116.062 192.496 116.227 193.094 116.555 193.375C116.883 193.656 117.305 193.621 117.82 193.27C118.359 192.895 118.945 192.227 119.578 191.266C120.234 190.281 120.891 188.992 121.547 187.398C121.969 185.875 122.379 184.305 122.777 182.688C123.105 181.305 123.434 179.781 123.762 178.117C124.113 176.453 124.383 174.848 124.57 173.301L131.039 171.051V193.902C131.039 194.465 131.168 194.91 131.426 195.238C131.684 195.566 132.012 195.742 132.41 195.766C132.809 195.766 133.242 195.613 133.711 195.309C134.203 195.004 134.684 194.512 135.152 193.832L136.137 194.887ZM174.914 189.051L167.848 200.512C166.254 200.23 164.777 199.984 163.418 199.773C162.082 199.562 160.758 199.363 159.445 199.176C158.156 199.012 156.832 198.836 155.473 198.648C154.113 198.461 152.648 198.238 151.078 197.98C150.469 197.863 149.859 197.781 149.25 197.734C148.664 197.664 148.066 197.629 147.457 197.629C146.168 197.629 144.926 197.805 143.73 198.156C142.559 198.508 141.434 199.059 140.355 199.809L139.266 198.648C139.758 198.227 140.18 197.723 140.531 197.137C140.883 196.551 141.176 195.93 141.41 195.273C141.668 194.594 141.855 193.914 141.973 193.234C142.09 192.555 142.148 191.91 142.148 191.301V170.559C142.148 167.277 142.723 164.219 143.871 161.383C145.02 158.547 146.602 156.086 148.617 154C150.656 151.891 153.047 150.238 155.789 149.043C158.555 147.824 161.543 147.215 164.754 147.215C165.785 147.215 166.781 147.332 167.742 147.566C168.703 147.801 169.547 148.176 170.273 148.691C171.023 149.207 171.621 149.875 172.066 150.695C172.512 151.516 172.734 152.523 172.734 153.719C172.734 154.773 172.535 155.793 172.137 156.777C171.738 157.762 171.188 158.699 170.484 159.59C169.805 160.48 169.008 161.312 168.094 162.086C167.203 162.836 166.266 163.516 165.281 164.125C164.297 164.734 163.289 165.25 162.258 165.672C161.227 166.094 160.254 166.422 159.34 166.656L158.777 165.32C159.574 164.852 160.395 164.312 161.238 163.703C162.105 163.094 162.891 162.426 163.594 161.699C164.297 160.949 164.871 160.141 165.316 159.273C165.762 158.383 165.984 157.422 165.984 156.391C165.984 155.57 165.832 154.82 165.527 154.141C165.223 153.438 164.801 152.84 164.262 152.348C163.746 151.855 163.137 151.469 162.434 151.188C161.754 150.906 161.016 150.766 160.219 150.766C158.461 150.766 156.914 151.141 155.578 151.891C154.242 152.641 153.117 153.625 152.203 154.844C151.289 156.062 150.598 157.445 150.129 158.992C149.66 160.539 149.426 162.109 149.426 163.703V186.344C149.426 187.234 149.297 188.102 149.039 188.945C148.781 189.766 148.43 190.562 147.984 191.336C147.562 192.086 147.059 192.801 146.473 193.48C145.887 194.16 145.266 194.781 144.609 195.344C145.359 194.805 146.086 194.312 146.789 193.867C147.492 193.398 148.207 193 148.934 192.672C149.684 192.344 150.457 192.098 151.254 191.934C152.051 191.746 152.93 191.652 153.891 191.652C155.062 191.652 156.105 191.711 157.02 191.828C157.934 191.945 158.824 192.074 159.691 192.215C160.582 192.332 161.484 192.449 162.398 192.566C163.312 192.684 164.355 192.742 165.527 192.742C166.348 192.742 167.133 192.625 167.883 192.391C168.656 192.133 169.383 191.793 170.062 191.371C170.742 190.949 171.375 190.469 171.961 189.93C172.57 189.367 173.121 188.77 173.613 188.137L174.914 189.051ZM207.293 194.816C207.012 195.426 206.66 196 206.238 196.539C205.816 197.078 205.324 197.559 204.762 197.98C204.223 198.402 203.625 198.742 202.969 199C202.336 199.234 201.668 199.352 200.965 199.352C199.113 199.352 197.777 198.848 196.957 197.84C196.16 196.809 195.762 195.414 195.762 193.656V193.023C195.34 193.82 194.859 194.617 194.32 195.414C193.805 196.211 193.207 196.926 192.527 197.559C191.871 198.191 191.133 198.707 190.312 199.105C189.492 199.504 188.578 199.703 187.57 199.703C186.047 199.703 184.699 199.41 183.527 198.824C182.355 198.238 181.371 197.453 180.574 196.469C179.777 195.461 179.18 194.289 178.781 192.953C178.383 191.617 178.184 190.199 178.184 188.699C178.184 186.66 178.535 184.633 179.238 182.617C179.965 180.578 180.973 178.762 182.262 177.168C183.574 175.574 185.133 174.285 186.938 173.301C188.766 172.293 190.793 171.789 193.02 171.789C193.91 171.789 194.801 171.871 195.691 172.035C196.582 172.199 197.426 172.469 198.223 172.844C199.043 173.195 199.781 173.664 200.438 174.25C201.117 174.836 201.668 175.551 202.09 176.395L196.852 178.609C196.57 178.164 196.242 177.742 195.867 177.344C195.516 176.922 195.117 176.559 194.672 176.254C194.25 175.949 193.793 175.703 193.301 175.516C192.809 175.328 192.293 175.234 191.754 175.234C190.535 175.234 189.445 175.609 188.484 176.359C187.547 177.109 186.738 178.035 186.059 179.137C185.402 180.238 184.898 181.41 184.547 182.652C184.195 183.895 184.02 185.02 184.02 186.027C184.02 186.918 184.102 187.926 184.266 189.051C184.453 190.152 184.77 191.195 185.215 192.18C185.66 193.164 186.246 193.996 186.973 194.676C187.699 195.355 188.613 195.695 189.715 195.695C190.582 195.695 191.332 195.508 191.965 195.133C192.598 194.734 193.137 194.23 193.582 193.621C194.027 192.988 194.391 192.273 194.672 191.477C194.977 190.656 195.199 189.824 195.34 188.98C195.504 188.137 195.609 187.305 195.656 186.484C195.727 185.641 195.762 184.891 195.762 184.234V181.809L202.16 179.559V193.832C202.16 194.301 202.277 194.734 202.512 195.133C202.746 195.508 203.109 195.695 203.602 195.695C204.188 195.695 204.715 195.484 205.184 195.062C205.676 194.617 206.062 194.172 206.344 193.727L207.293 194.816ZM230.355 195.168C229.934 195.824 229.418 196.422 228.809 196.961C228.199 197.477 227.531 197.922 226.805 198.297C226.078 198.672 225.316 198.965 224.52 199.176C223.723 199.387 222.938 199.492 222.164 199.492C221.133 199.492 220.242 199.305 219.492 198.93C218.766 198.531 218.168 198.016 217.699 197.383C217.23 196.75 216.879 196.012 216.645 195.168C216.434 194.324 216.328 193.445 216.328 192.531C216.328 191.336 216.504 190.059 216.855 188.699C217.23 187.316 217.723 185.957 218.332 184.621C218.965 183.285 219.68 182.043 220.477 180.895C221.273 179.746 222.117 178.797 223.008 178.047C222.188 178.586 221.285 179.008 220.301 179.312C219.34 179.617 218.355 179.77 217.348 179.77C216.621 179.77 215.988 179.711 215.449 179.594C214.91 179.477 214.312 179.254 213.656 178.926L210 186.555L208.488 185.957L212.285 178.188C211.887 177.906 211.453 177.555 210.984 177.133C210.539 176.688 210.211 176.254 210 175.832L214.887 170.348C215.098 170.98 215.391 171.625 215.766 172.281C216.141 172.914 216.574 173.488 217.066 174.004C217.582 174.496 218.145 174.906 218.754 175.234C219.387 175.562 220.066 175.727 220.793 175.727C222.035 175.727 223.242 175.504 224.414 175.059C225.586 174.59 226.676 174.027 227.684 173.371L228.633 174.32C227.742 175.141 226.84 176.055 225.926 177.062C225.035 178.047 224.227 179.102 223.5 180.227C222.773 181.352 222.188 182.535 221.742 183.777C221.297 185.02 221.074 186.273 221.074 187.539C221.074 188.266 221.168 189.086 221.355 190C221.566 190.891 221.883 191.746 222.305 192.566C222.727 193.363 223.254 194.043 223.887 194.605C224.52 195.145 225.281 195.414 226.172 195.414C226.781 195.414 227.367 195.309 227.93 195.098C228.516 194.863 229.043 194.582 229.512 194.254L230.355 195.168Z" fill="#9F6F06"/>
</svg>
