<svg width="156" height="156" viewBox="0 0 156 156" fill="none" xmlns="http://www.w3.org/2000/svg">
<g clip-path="url(#clip0)">
<path d="M154.301 74.7119C153.123 73.4525 151.463 72.7306 149.745 72.7306H149.234C151.55 68.7443 152.809 64.2179 152.809 59.5572C152.809 49.0474 146.523 39.5862 136.98 35.4287C136.756 21.096 125.042 9.49808 110.657 9.49808C96.2742 9.49808 84.563 21.0881 84.3312 35.4155C83.7937 35.2891 83.2404 35.2153 82.6766 35.2153C80.3344 35.2153 78.1291 36.3587 76.7828 38.2715L76.1268 39.2042C75.5867 39.9683 74.5723 40.2449 73.7239 39.8497L72.6911 39.3702C70.5649 38.3795 68.0857 38.4955 66.0543 39.6653C64.023 40.8351 62.6872 42.9297 62.4764 45.2614L62.3737 46.3969C62.3368 46.8027 62.1576 47.3691 61.9232 47.9751C61.3198 47.6879 60.8877 47.0977 60.8245 46.3943L60.7217 45.264C60.5215 43.0509 59.3385 41.2171 57.6444 40.0552L65.9358 28.2887C67.5508 25.9939 68.1779 23.1985 67.6931 20.4215C67.211 17.6393 65.6829 15.218 63.3907 13.6029C58.6377 10.2569 52.051 11.3951 48.7049 16.148L33.5291 37.6866C33.0232 38.4059 32.6491 39.1858 32.3408 39.9867C32.0958 39.9972 31.835 39.9735 31.5662 39.8497L30.5334 39.3702C28.4073 38.3848 25.9227 38.4981 23.8967 39.6679C21.868 40.8377 20.5322 42.9297 20.3214 45.2614L20.2186 46.3969C20.1343 47.3322 19.394 48.0726 18.4587 48.1569L17.3257 48.2596C14.994 48.4704 12.8995 49.8088 11.7297 51.8349C10.5572 53.8663 10.4466 56.3455 11.4319 58.477L11.9088 59.5045C12.304 60.3581 12.0327 61.3699 11.2633 61.91L10.3333 62.566C8.41786 63.9176 7.2744 66.1228 7.2744 68.4651C7.2744 70.0274 7.82242 71.5029 8.72875 72.728H6.25214C4.53433 72.728 2.87447 73.4499 1.69676 74.7093C0.508519 75.9792 -0.105364 77.7076 0.0131968 79.4438C1.57293 102.489 16.2323 114.061 37.7657 124.344C40.1685 125.493 42.1524 127.4 43.3565 129.724C44.5316 131.995 44.3445 134.925 42.8454 137.418C41.7151 139.293 41.6835 141.551 42.761 143.459C43.8386 145.366 45.7883 146.502 47.9777 146.502H108.022C110.212 146.502 112.161 145.364 113.239 143.459C114.317 141.551 114.285 139.293 113.128 137.37C111.656 134.922 111.471 131.995 112.644 129.727C113.845 127.403 115.829 125.493 118.234 124.344C139.762 114.061 154.424 102.492 155.987 79.4465C156.103 77.7076 155.486 75.9818 154.301 74.7119ZM147.543 59.5572C147.543 64.3523 145.896 68.9867 142.885 72.7306H129.1V62.1919C129.1 60.7349 127.922 59.5572 126.465 59.5572C125.008 59.5572 123.83 60.7349 123.83 62.1919V72.7306H114.527C114.741 72.4408 114.925 72.1352 115.091 71.819C115.099 71.8059 115.11 71.7927 115.118 71.7795C115.349 71.3316 115.515 70.8521 115.65 70.3647C115.684 70.2435 115.713 70.1223 115.739 69.9958C115.847 69.4952 115.924 68.9867 115.924 68.4651C115.924 66.1202 114.78 63.9176 112.868 62.5739L112.262 62.1445C112.472 62.1313 112.675 62.097 112.883 62.0812C113.199 62.0549 113.516 62.0233 113.829 61.9837C114.348 61.9205 114.862 61.8415 115.37 61.7492C115.671 61.6939 115.974 61.6439 116.272 61.578C116.82 61.4594 117.36 61.3119 117.895 61.1591C118.134 61.0906 118.377 61.0352 118.614 60.9588C119.365 60.7191 120.1 60.453 120.819 60.15C121.019 60.0657 121.209 59.9656 121.404 59.876C121.926 59.6415 122.445 59.3991 122.948 59.1304C123.23 58.9802 123.504 58.8168 123.778 58.6561C124.181 58.4216 124.581 58.1845 124.971 57.9289C125.261 57.7392 125.546 57.5443 125.828 57.344C126.183 57.0911 126.534 56.8276 126.876 56.5589C127.158 56.3376 127.437 56.1189 127.709 55.8871C128.033 55.6104 128.341 55.3206 128.652 55.0308C128.918 54.7831 129.187 54.5381 129.442 54.2799C129.735 53.9822 130.006 53.666 130.283 53.3551C130.807 52.7676 131.302 52.159 131.774 51.524C131.94 51.3001 132.117 51.084 132.277 50.8522C132.564 50.4385 132.828 50.0091 133.091 49.5822C133.223 49.3662 133.36 49.1528 133.487 48.9315C133.753 48.4704 133.998 47.9988 134.235 47.5219C134.327 47.3322 134.419 47.1452 134.509 46.9528C134.754 46.4285 134.983 45.899 135.194 45.3562C135.239 45.2403 135.281 45.1191 135.323 45.0032C135.8 43.7201 136.206 42.4027 136.48 41.038C143.209 44.6765 147.543 51.7559 147.543 59.5572ZM110.657 14.7675C122.279 14.7675 131.735 24.2234 131.735 35.845C131.735 36.2428 131.7 36.6327 131.677 37.0253C131.677 37.0253 131.669 37.0411 131.669 37.0517C131.513 39.8207 130.823 42.437 129.706 44.8108C129.695 44.8345 129.685 44.8582 129.674 44.882C129.416 45.4273 129.131 45.9543 128.828 46.4733C128.792 46.5365 128.757 46.5998 128.72 46.663C128.439 47.1346 128.133 47.5931 127.814 48.0383C127.746 48.1358 127.68 48.2333 127.611 48.3281C127.314 48.7339 126.995 49.1238 126.668 49.5058C126.565 49.627 126.465 49.7509 126.36 49.8694C126.052 50.2172 125.725 50.5465 125.393 50.8732C125.256 51.0103 125.121 51.1473 124.979 51.2816C124.663 51.5767 124.331 51.8534 123.996 52.13C123.825 52.2723 123.657 52.4172 123.48 52.5515C123.156 52.7992 122.821 53.0311 122.484 53.2629C122.281 53.4025 122.081 53.5448 121.87 53.6766C121.541 53.8847 121.201 54.0718 120.861 54.2615C120.629 54.3906 120.397 54.5249 120.16 54.6461C119.828 54.8147 119.486 54.9649 119.146 55.1151C118.885 55.231 118.627 55.3522 118.361 55.455C118.026 55.5867 117.684 55.7 117.341 55.8133C117.054 55.9108 116.772 56.0109 116.48 56.0952C116.148 56.1927 115.805 56.2665 115.465 56.3455C115.152 56.4193 114.841 56.4983 114.522 56.5589C114.193 56.6195 113.858 56.659 113.526 56.7065C113.186 56.7539 112.849 56.8039 112.507 56.8356C112.441 56.8408 112.372 56.8408 112.304 56.8461V56.8435C112.309 56.8092 112.309 56.7776 112.314 56.7433C112.401 56.2665 112.43 55.7843 112.42 55.3022C112.417 55.1467 112.399 54.9965 112.385 54.8411C112.354 54.4617 112.291 54.0902 112.201 53.7213C112.164 53.5738 112.135 53.4263 112.088 53.2814C111.932 52.786 111.74 52.2986 111.474 51.8402C110.301 49.8115 108.209 48.4757 105.878 48.2649L104.742 48.1622C104.044 48.0989 103.454 47.6695 103.164 47.0635L108.794 41.4358C109.824 40.4056 109.824 38.7405 108.794 37.7103C107.764 36.6802 106.099 36.6802 105.069 37.7103L101.309 41.47C100.753 40.7666 100.1 40.1342 99.3041 39.6732C98.7719 39.3649 98.2055 39.141 97.6258 38.9803C97.4309 38.9249 97.2333 38.9197 97.0357 38.8828C96.6405 38.8064 96.2505 38.7352 95.8501 38.7273C95.8 38.7273 95.7499 38.7062 95.6999 38.7062C95.3969 38.7062 95.0992 38.7642 94.7988 38.8037C94.6117 38.8274 94.4247 38.8274 94.2403 38.8643C93.7028 38.975 93.1758 39.1383 92.6674 39.3728L91.6398 39.8497C91.3764 39.9709 91.0971 40.0183 90.8152 40.0078C90.7994 40.0078 90.7862 40.0052 90.7704 40.0052C90.4937 39.9867 90.2171 39.9103 89.9642 39.7707C89.7086 38.4375 89.5795 37.1202 89.5795 35.845C89.5795 24.2234 99.0328 14.7675 110.657 14.7675ZM67.622 46.8738L67.7247 45.7382C67.7801 45.1006 68.1331 44.55 68.689 44.2312C69.2423 43.9124 69.8957 43.8781 70.4754 44.1522L71.5134 44.6343C74.6724 46.0939 78.4295 45.0848 80.4345 42.242L81.0905 41.3093C81.8309 40.2581 83.5329 40.266 84.268 41.3067L84.924 42.2394C86.2677 44.1442 88.3965 45.2008 90.607 45.2666C90.6334 45.2666 90.6571 45.2666 90.6834 45.2666C91.0022 45.2719 91.3237 45.2666 91.6425 45.2297C91.7926 45.2139 91.9402 45.1797 92.0904 45.1533C92.3064 45.1138 92.5198 45.0848 92.7332 45.0269C93.1126 44.9241 93.4867 44.795 93.8503 44.6264L94.8805 44.1469C95.4628 43.8781 96.1162 43.9071 96.6668 44.2259C97.2201 44.5474 97.5731 45.0954 97.6285 45.7356L97.7312 46.8659C98.0474 50.3384 100.795 53.089 104.265 53.3999L105.398 53.5027C106.038 53.558 106.589 53.911 106.908 54.467C107.229 55.0202 107.258 55.6737 106.99 56.2506L106.505 57.294C106.484 57.3414 106.476 57.3836 106.457 57.431C105.519 59.5809 105.714 61.9706 106.826 63.9044C106.842 63.9308 106.858 63.9598 106.874 63.9861C107.016 64.2259 107.166 64.4551 107.337 64.679C107.43 64.8029 107.532 64.9161 107.632 65.0347C107.761 65.1822 107.885 65.3351 108.028 65.4721C108.296 65.7382 108.584 65.9885 108.9 66.2098L109.835 66.8711C110.357 67.2452 110.657 67.8248 110.657 68.4651C110.657 69.1053 110.357 69.6823 109.835 70.0512L108.897 70.7098C108.889 70.7151 108.884 70.723 108.873 70.7309C108.531 70.9759 108.217 71.2526 107.925 71.5529C107.809 71.6715 107.709 71.8059 107.601 71.9323C107.443 72.1194 107.287 72.3091 107.15 72.512C107.098 72.5884 107.029 72.6542 106.979 72.7333H72.3723C72.5857 72.4435 72.7702 72.1352 72.9388 71.819C72.9467 71.8059 72.9546 71.7953 72.9625 71.7821C73.1944 71.3316 73.363 70.8521 73.4973 70.362C73.5316 70.2409 73.5579 70.1223 73.5843 70.0011C73.6949 69.5031 73.7687 68.9946 73.7714 68.4756V68.4703C73.7714 68.1331 73.6976 67.8117 73.6528 67.4823C73.6185 67.2399 73.6238 66.9896 73.5632 66.7525C73.3709 65.9674 73.0047 65.2481 72.5673 64.5736C72.072 63.8122 71.4739 63.114 70.7125 62.5765L69.7798 61.9179C69.0131 61.3778 68.7444 60.3687 69.1369 59.5203L69.6191 58.4849C69.8536 57.979 70.0143 57.4494 70.1249 56.912C70.1592 56.7512 70.1592 56.5905 70.1803 56.4298C70.233 56.0504 70.2725 55.6737 70.2646 55.2943C70.2593 55.0967 70.2277 54.9017 70.2066 54.7041C70.1697 54.3642 70.1249 54.027 70.0406 53.695C69.9853 53.479 69.9115 53.2734 69.8378 53.0627C69.7745 52.8888 69.7429 52.707 69.6691 52.5357C69.6244 52.433 69.5453 52.3566 69.4953 52.2591C69.4294 52.1247 69.3951 51.9798 69.3214 51.8481C69.1817 51.6083 68.992 51.4107 68.826 51.1894C68.689 51.005 68.5678 50.8127 68.415 50.6414C68.0962 50.2857 67.7326 49.9827 67.3532 49.7008C67.24 49.6165 67.1556 49.4979 67.0371 49.4215C67.3111 48.6206 67.5429 47.7406 67.622 46.8738ZM53.0153 19.1858C54.6883 16.8093 57.9843 16.2402 60.3581 17.9133C61.5016 18.7195 62.2657 19.9314 62.5054 21.3226C62.7452 22.7163 62.4369 24.1153 61.6307 25.2562L51.3528 39.8418C51.3528 39.8418 51.3501 39.8418 51.3501 39.8444L46.4523 46.7921C45.646 47.9382 44.4367 48.7023 43.0456 48.942C41.6571 49.1739 40.2555 48.8735 39.112 48.0647C39.1067 48.062 39.1041 48.0568 39.0988 48.0541C38.7221 47.788 38.4059 47.464 38.1187 47.1214C38.045 47.0345 37.9764 46.9423 37.9079 46.8501C37.6576 46.5049 37.4416 46.1387 37.2809 45.7461C37.2704 45.7198 37.2545 45.6987 37.244 45.6724C37.0833 45.2561 36.9937 44.8161 36.941 44.3682C36.9278 44.2549 36.9226 44.1416 36.9147 44.0283C36.891 43.5804 36.9041 43.1246 36.999 42.6688C37.1439 41.9785 37.4205 41.3172 37.8368 40.7271L53.0153 19.1858ZM14.2985 70.7072L13.3658 70.0512C12.8415 69.6823 12.5412 69.1053 12.5412 68.4624C12.5412 67.8196 12.8415 67.2426 13.3658 66.8711L14.2932 66.2177C17.1466 64.2127 18.153 60.4582 16.6882 57.2861L16.2113 56.2586C15.9399 55.6763 15.9715 55.0229 16.2903 54.467C16.6117 53.9137 17.1598 53.5606 17.8 53.5053L18.9303 53.4025C22.4028 53.0917 25.1508 50.3437 25.4669 46.8712L25.5697 45.7356C25.625 45.098 25.9781 44.55 26.5314 44.2286C27.082 43.9098 27.738 43.8808 28.3177 44.1495L29.3557 44.6317C30.1093 44.9794 30.9076 45.1823 31.7191 45.2456C31.727 45.3009 31.7507 45.3562 31.7612 45.4115C31.7691 45.459 31.7638 45.5064 31.7718 45.5512C31.8244 45.8515 31.9351 46.1282 32.0115 46.4206C32.1011 46.7605 32.1696 47.1056 32.2908 47.4376C32.4357 47.8275 32.6359 48.1885 32.823 48.5574C32.9495 48.805 33.0469 49.0606 33.1945 49.2977C33.4527 49.7166 33.7688 50.096 34.085 50.4754C34.2194 50.6361 34.3248 50.8126 34.467 50.9655C34.9518 51.4792 35.4867 51.9535 36.0768 52.3671C36.5959 52.7333 37.1492 53.0337 37.713 53.2972C37.8921 53.3788 38.0739 53.4447 38.2584 53.5158C38.6615 53.6766 39.0698 53.8136 39.4888 53.9216C39.6995 53.9769 39.9077 54.0296 40.1237 54.0691C40.569 54.1561 41.0195 54.2061 41.4753 54.2351C41.6466 54.2456 41.8126 54.272 41.9838 54.2746C42.0286 54.2746 42.0708 54.2852 42.1155 54.2852C42.7242 54.2852 43.3354 54.2325 43.9467 54.1271C46.7263 53.6423 49.1475 52.1142 50.7626 49.822L54.6382 44.3208C55.0782 44.6132 55.4181 45.0875 55.4761 45.7356L55.5788 46.8659C55.895 50.3384 58.643 53.0864 62.1129 53.3999L63.2458 53.5027C63.4934 53.5237 63.7095 53.6265 63.9202 53.7293C64.023 53.7819 64.1258 53.8294 64.218 53.9005C64.3602 54.0059 64.4762 54.1429 64.5842 54.2852C64.6527 54.3748 64.7291 54.4564 64.7818 54.5592C64.9083 54.8068 64.9978 55.0677 65.011 55.3364C65.011 55.347 65.0084 55.3628 65.0084 55.3733C65.0189 55.6684 64.9636 55.9687 64.8345 56.248L64.3523 57.2834C63.8017 58.4717 63.6014 59.7416 63.7147 60.972C63.7174 60.9878 63.7226 61.0036 63.7226 61.0221C63.7622 61.4146 63.828 61.8019 63.9308 62.184C64.355 63.7701 65.3193 65.2086 66.742 66.2098L67.3822 66.6603L67.6747 66.8658C68.2016 67.2478 68.502 67.8248 68.502 68.4651C68.502 68.7865 68.4282 69.0895 68.2859 69.3609C68.2464 69.4399 68.1621 69.4873 68.1094 69.5611C67.9829 69.7403 67.8617 69.9221 67.6747 70.0538L67.6404 70.0775L66.7394 70.7098C66.3784 70.9654 66.0464 71.2605 65.7408 71.5766C65.646 71.6741 65.5696 71.7848 65.4826 71.8849C65.2824 72.1168 65.09 72.3539 64.9188 72.6094C64.8898 72.6516 64.8503 72.6885 64.8239 72.7306H16.2192C15.716 71.9402 15.0652 71.2473 14.2985 70.7072ZM115.963 119.589C112.53 121.227 109.69 123.967 107.962 127.306C105.951 131.189 106.202 136.087 108.639 140.134C108.818 140.434 108.744 140.698 108.647 140.864C108.552 141.03 108.367 141.233 108.017 141.233H47.9777C47.63 141.233 47.4429 141.032 47.348 140.864C47.2532 140.698 47.1768 140.434 47.3849 140.086C49.7957 136.084 50.046 131.187 48.0357 127.3C46.31 123.962 43.4671 121.222 40.0368 119.586C19.6048 109.832 6.66316 99.6545 5.27204 79.0908C5.24569 78.6982 5.43539 78.4321 5.54868 78.3083C5.68042 78.166 5.90963 78 6.25478 78H14.5435H66.5049H108.66H108.826H144.102H149.748C150.09 78 150.32 78.166 150.454 78.3083C150.567 78.4321 150.757 78.6956 150.728 79.0908C149.334 99.6545 136.393 109.832 115.963 119.589Z" fill="black"/>
<path d="M97.4836 122.79H74.5433C73.089 122.79 71.9086 123.967 71.9086 125.424C71.9086 126.881 73.089 128.059 74.5433 128.059H97.4836C98.9379 128.059 100.118 126.881 100.118 125.424C100.118 123.967 98.9379 122.79 97.4836 122.79Z" fill="black"/>
<path d="M57.9632 128.059H66.8842C68.3386 128.059 69.5189 126.881 69.5189 125.424C69.5189 123.967 68.3386 122.79 66.8842 122.79H57.9632C56.5088 122.79 55.3285 123.967 55.3285 125.424C55.3285 126.881 56.5062 128.059 57.9632 128.059Z" fill="black"/>
<path d="M97.4835 130.694H57.9632C56.5088 130.694 55.3285 131.872 55.3285 133.329C55.3285 134.785 56.5088 135.963 57.9632 135.963H97.4835C98.9379 135.963 100.118 134.785 100.118 133.329C100.118 131.872 98.9379 130.694 97.4835 130.694Z" fill="black"/>
<path d="M105.069 33.9822C105.583 34.496 106.257 34.7542 106.932 34.7542C107.606 34.7542 108.281 34.496 108.794 33.9822C109.824 32.9521 109.824 31.287 108.794 30.2568L101.341 22.8059C100.311 21.7757 98.6455 21.7757 97.6153 22.8059C96.5852 23.8361 96.5852 25.5012 97.6153 26.5313L105.069 33.9822Z" fill="black"/>
<path d="M119.971 48.8841C120.484 49.3978 121.159 49.656 121.833 49.656C122.508 49.656 123.182 49.3978 123.696 48.8841C124.726 47.8539 124.724 46.1888 123.696 45.1586L116.243 37.7077C115.212 36.6775 113.547 36.6775 112.517 37.7077C111.487 38.7379 111.487 40.403 112.517 41.4332L119.971 48.8841Z" fill="black"/>
<path d="M114.382 34.7542C115.057 34.7542 115.731 34.496 116.245 33.9822L123.699 26.5313C124.726 25.5012 124.729 23.8361 123.699 22.8059C122.669 21.7757 121.003 21.7757 119.973 22.8059L112.52 30.2568C111.49 31.287 111.49 32.9521 112.52 33.9822C113.034 34.496 113.708 34.7542 114.382 34.7542Z" fill="black"/>
<path d="M129.1 56.9225C129.1 58.3795 130.278 59.5572 131.735 59.5572H142.273C143.73 59.5572 144.908 58.3795 144.908 56.9225C144.908 55.4655 143.73 54.2878 142.273 54.2878H131.735C130.278 54.2878 129.1 55.4655 129.1 56.9225Z" fill="black"/>
<path d="M80.3581 58.2399C81.0325 58.2399 81.707 57.9817 82.2208 57.4679L86.1728 53.5159C87.203 52.4857 87.203 50.8206 86.1728 49.7904C85.1427 48.7603 83.4775 48.7603 82.4474 49.7904L78.4953 53.7424C77.4652 54.7726 77.4652 56.4377 78.4953 57.4679C79.0091 57.9817 79.6836 58.2399 80.3581 58.2399Z" fill="black"/>
<path d="M92.9862 64.0546C93.4999 64.5684 94.1744 64.8266 94.8489 64.8266C95.5234 64.8266 96.1979 64.5684 96.7116 64.0546C97.7418 63.0244 97.7418 61.3593 96.7116 60.3292L94.0769 57.6945C93.0468 56.6643 91.3816 56.6643 90.3515 57.6945C89.3213 58.7246 89.3213 60.3898 90.3515 61.4199L92.9862 64.0546Z" fill="black"/>
<path d="M82.4474 62.9638L79.8127 65.5985C78.7825 66.6287 78.7825 68.2938 79.8127 69.324C80.3264 69.8377 81.0009 70.0959 81.6754 70.0959C82.3499 70.0959 83.0244 69.8377 83.5381 69.324L86.1728 66.6893C87.203 65.6591 87.203 63.994 86.1728 62.9638C85.1426 61.9337 83.4749 61.9337 82.4474 62.9638Z" fill="black"/>
</g>
<defs>
<clipPath id="clip0">
<rect width="156" height="156" fill="white"/>
</clipPath>
</defs>
</svg>
