<svg width="156" height="156" viewBox="0 0 156 156" fill="none" xmlns="http://www.w3.org/2000/svg">
<g clip-path="url(#clip0)">
<path d="M98.8394 104.005H98.8318C97.3958 104.006 96.2325 105.171 96.2332 106.607C96.2338 108.042 97.3986 109.206 98.8346 109.205H98.8398C100.274 109.207 101.437 110.368 101.44 111.803C101.441 113.237 102.605 114.4 104.04 114.4H104.042C105.478 114.399 106.641 113.233 106.64 111.797C106.631 107.494 103.142 104.01 98.8394 104.005Z" fill="black"/>
<path d="M67.6026 114.405L72.8027 114.4C74.2387 114.399 75.402 113.235 75.4014 111.799C75.4007 110.363 74.2359 109.199 72.7999 109.2H72.7972L67.5971 109.205C66.1611 109.206 64.9978 110.371 64.9984 111.807C64.999 113.243 66.1638 114.406 67.5998 114.405H67.6026Z" fill="black"/>
<path d="M68.6245 103.604L73.5122 105.377C74.3864 105.699 75.3654 105.528 76.0792 104.929C76.7931 104.331 77.1322 103.397 76.9686 102.48C76.805 101.564 76.1636 100.804 75.2871 100.49L70.3993 98.7163C69.051 98.2319 67.5651 98.929 67.076 100.276C66.587 101.622 67.2796 103.111 68.6245 103.604Z" fill="black"/>
<path d="M76.0848 118.725C75.3727 118.129 74.3965 117.958 73.5239 118.276L68.6388 120.058C67.7662 120.377 67.1297 121.137 66.9691 122.051C66.8086 122.966 67.1483 123.898 67.8603 124.494C68.5724 125.091 69.5486 125.262 70.4212 124.944L75.3063 123.161C76.1789 122.843 76.8154 122.083 76.976 121.168C77.1365 120.253 76.7968 119.322 76.0848 118.725Z" fill="black"/>
<path d="M130 109.195H129.997L124.797 109.2C123.369 109.211 122.216 110.372 122.217 111.801C122.217 113.23 123.371 114.39 124.8 114.4H124.802L130.002 114.395C131.438 114.394 132.601 113.229 132.601 111.793C132.6 110.357 131.436 109.194 130 109.195Z" fill="black"/>
<path d="M123.264 105.492C123.568 105.491 123.869 105.437 124.155 105.333L129.039 103.551C129.911 103.232 130.548 102.472 130.708 101.558C130.869 100.643 130.529 99.7114 129.817 99.1149C129.105 98.5183 128.129 98.347 127.256 98.6654L122.373 100.448C121.188 100.881 120.484 102.101 120.703 103.343C120.923 104.586 122.002 105.491 123.264 105.492Z" fill="black"/>
<path d="M129.054 120.006L124.167 118.232C122.818 117.747 121.332 118.444 120.843 119.791C120.354 121.138 121.047 122.626 122.392 123.119L127.28 124.894C128.627 125.376 130.111 124.679 130.6 123.334C131.088 121.988 130.397 120.501 129.054 120.006Z" fill="black"/>
<path d="M53.7319 10.4191C44.0285 10.8831 36.3998 18.8854 36.3998 28.5998C36.3998 30.0358 37.5637 31.1997 38.9997 31.1997C40.4357 31.1997 41.5996 30.0355 41.5996 28.5998C41.5935 24.6821 43.3601 20.9723 46.4048 18.507C49.4956 16.0168 53.5461 15.057 57.4257 15.8955C62.3695 16.9684 66.2308 20.83 67.3039 25.7738C68.0833 29.3067 67.3582 33.0047 65.3021 35.9815C63.2461 38.9583 60.0444 40.9457 56.4647 41.4677C53.9129 41.8382 52.015 44.0182 51.9998 46.5965V49.3996C51.9998 50.8356 53.1637 51.9995 54.5997 51.9995C56.0357 51.9995 57.1996 50.8356 57.1996 49.3996L57.2008 46.6141C66.8155 45.2266 73.6463 36.5329 72.7194 26.8628C71.7929 17.1932 63.4353 9.95505 53.7319 10.4191Z" fill="black"/>
<path d="M56.4461 57.954C56.1932 57.7243 55.9032 57.539 55.5878 57.4068C54.9544 57.1478 54.2448 57.1478 53.6113 57.4068C53.2932 57.5326 53.0022 57.7185 52.7542 57.954C52.5245 58.2063 52.3392 58.4964 52.207 58.8111C52.0739 59.124 52.0038 59.4601 52.0001 59.8001C52.0041 59.9744 52.0218 60.1478 52.0522 60.3193C52.0799 60.4823 52.1324 60.6401 52.207 60.7876C52.264 60.9534 52.3432 61.1112 52.4419 61.2562C52.5458 61.3857 52.65 61.5152 52.7542 61.6459C53.2527 62.1206 53.912 62.3897 54.6 62.4C54.941 62.4088 55.2792 62.3376 55.5878 62.1919C55.9026 62.0597 56.1929 61.875 56.4461 61.6459C56.55 61.5152 56.6542 61.3857 56.7572 61.2562C56.8559 61.1112 56.9348 60.9537 56.9921 60.7876C57.0668 60.6398 57.1195 60.482 57.1484 60.3193C57.1783 60.1478 57.1957 59.9741 57.2005 59.8001C57.1966 59.4601 57.1259 59.124 56.9924 58.8111C56.8596 58.4967 56.6749 58.2069 56.4461 57.954Z" fill="black"/>
<path d="M114.4 62.4V10.3999C114.393 4.65898 109.741 0.00670312 104 0H10.3999C4.65898 0.00670312 0.00670312 4.65898 0 10.3999V62.4C0.00670312 68.1409 4.65898 72.7935 10.3999 72.7999H12.9998V88.3947C12.998 90.4989 14.2646 92.3965 16.2085 93.2018C18.1524 94.0071 20.39 93.5607 21.8763 92.0714C21.9387 92.0101 21.9972 91.9455 22.0515 91.877L37.6323 72.7999H104C109.741 72.7935 114.393 68.1409 114.4 62.4ZM36.4001 67.6001C36.3562 67.6001 36.32 67.623 36.2767 67.6251C35.9425 67.6754 35.6134 67.7564 35.2944 67.8676C35.1591 67.942 35.0308 68.0285 34.9111 68.126C34.7569 68.2268 34.614 68.3438 34.4851 68.4752C34.4559 68.5078 34.4151 68.5215 34.3867 68.5559L18.2002 88.3734V70.2C18.2002 68.764 17.0363 67.6001 15.6003 67.6001H10.3999C7.52913 67.5974 5.20284 65.2708 5.1998 62.4V10.3999C5.20254 7.52913 7.52913 5.20284 10.3999 5.1998H104C106.871 5.20254 109.197 7.52913 109.2 10.3999V62.4C109.197 65.2708 106.871 67.5971 104 67.6001H36.4001Z" fill="black"/>
<path d="M145.6 83.2001H143V67.6053C143 65.5023 141.733 63.6063 139.79 62.8016C137.847 61.9969 135.611 62.4417 134.123 63.9286C134.061 63.9899 134.002 64.0545 133.948 64.123L118.367 83.2001H52.0001C46.2592 83.2068 41.6066 87.8591 41.6002 93.6V145.6C41.6069 151.341 46.2592 155.994 52.0001 156H145.6C151.341 155.993 155.994 151.341 156 145.6V93.6C155.993 87.8591 151.341 83.2065 145.6 83.2001ZM150.8 145.6C150.797 148.471 148.471 150.797 145.6 150.8H51.9998C49.129 150.797 46.8028 148.471 46.7997 145.6V93.6C46.8025 90.7292 49.129 88.4029 51.9998 88.3999H119.6C119.964 88.3978 120.323 88.3185 120.654 88.1671C120.731 88.1205 120.806 88.0702 120.878 88.016C121.117 87.8844 121.335 87.7156 121.521 87.5157C121.548 87.4855 121.587 87.4755 121.613 87.4438L137.8 67.6263V85.8C137.8 87.236 138.964 88.3999 140.4 88.3999H145.6C148.471 88.4026 150.797 90.7292 150.8 93.6V145.6Z" fill="black"/>
<path d="M100.989 93.7295C92.9166 92.7484 85.1736 97.2428 82.0219 104.739C78.8702 112.235 81.0755 120.912 87.4237 125.993C88.0379 126.477 88.3978 127.215 88.3999 127.997V130C88.4057 131.848 89.395 133.553 90.9967 134.475L90.9998 137.803C91.0086 140.307 92.2152 142.656 94.2459 144.121C95.5683 145.081 97.1606 145.598 98.7946 145.596C99.6645 145.595 100.529 145.454 101.354 145.179C104.571 144.031 106.688 140.948 106.603 137.533L106.601 134.476C108.204 133.555 109.194 131.849 109.2 130V128.004C109.216 127.194 109.599 126.435 110.242 125.94C115.342 121.851 117.838 115.328 116.77 108.879C115.412 100.909 109.007 94.7609 100.989 93.7295ZM99.7202 140.242C98.904 140.536 97.9957 140.41 97.2904 139.905C96.61 139.418 96.2045 138.634 96.1999 137.797L96.1971 135.2H101.402L101.404 137.538C101.457 138.702 100.788 139.777 99.7202 140.242ZM106.976 121.894C105.107 123.373 104.013 125.621 104 128.004V129.991H103.997L93.5997 130V127.997C93.6012 125.634 92.5223 123.4 90.671 121.932C86.3731 118.482 84.7187 112.697 86.5425 107.496C88.3664 102.295 93.2721 98.8101 98.7833 98.8001C99.3174 98.8001 99.8513 98.8312 100.382 98.8939C106.097 99.6267 110.663 104.007 111.634 109.686C112.401 114.298 110.62 118.965 106.976 121.894Z" fill="black"/>
</g>
<defs>
<clipPath id="clip0">
<rect width="156" height="156" fill="white"/>
</clipPath>
</defs>
</svg>
