<svg width="156" height="156" viewBox="0 0 156 156" fill="none" xmlns="http://www.w3.org/2000/svg">
<path d="M142.736 38.2956C135.622 32.6262 125.582 27.9846 112.894 24.5002C88.491 17.7989 60.9725 17.0756 50.2737 17.0756C22.5527 17.0756 0 39.6286 0 67.3496V88.6503C0 116.372 22.5527 138.924 50.2737 138.924C63.0563 138.924 72.6561 134.92 82.8195 130.681C93.33 126.297 104.198 121.763 119.483 121.763C139.618 121.763 156 105.382 156 85.2464V63.9457C156 53.94 151.537 45.3101 142.736 38.2956ZM140.17 90.3831C141.324 91.6089 143.252 91.6665 144.477 90.5132C146.544 88.5675 148.361 86.3996 149.906 84.0654V85.2464C149.906 102.022 136.258 115.67 119.483 115.67C102.978 115.67 91.5376 120.442 80.4738 125.057C70.8892 129.054 61.8363 132.831 50.2737 132.831C26.8677 132.831 7.65741 114.533 6.18759 91.4913C14.7432 107.053 31.2966 117.623 50.2737 117.623C63.0563 117.623 72.6561 113.619 82.8195 109.379C93.33 104.995 104.198 100.462 119.483 100.462C120.618 100.462 121.766 100.409 122.893 100.303C124.568 100.146 125.799 98.6609 125.642 96.9854C125.486 95.3102 123.998 94.0796 122.325 94.2362C121.385 94.3239 120.43 94.3687 119.483 94.3687C102.978 94.3687 91.5376 99.1407 80.4738 103.756C70.8892 107.753 61.8363 111.53 50.2737 111.53C25.9128 111.53 6.09375 91.7106 6.09375 67.3499C6.09375 42.989 25.9128 23.1696 50.2737 23.1696C60.7254 23.1696 87.5922 23.872 111.28 30.3767C136.91 37.4153 149.906 48.7095 149.906 63.9457C149.906 72.2621 146.405 80.3284 140.3 86.076C139.075 87.2296 139.017 89.158 140.17 90.3831Z" fill="black"/>
<path d="M137.665 92.3279C136.948 90.8054 135.133 90.1519 133.611 90.8685C133.589 90.8785 133.56 90.8929 133.538 90.9035C132.033 91.6561 131.423 93.4864 132.176 94.9912C132.709 96.0588 133.786 96.6761 134.903 96.6761C135.355 96.6761 135.813 96.5753 136.245 96.3629C137.739 95.6338 138.375 93.837 137.665 92.3279Z" fill="black"/>
<path d="M72.2682 30.122L72.1113 30.1092C70.4312 29.9782 68.9654 31.2268 68.8316 32.9044C68.6979 34.5817 69.9492 36.05 71.6265 36.1841L71.7822 36.1963C71.8648 36.203 71.9468 36.2063 72.0284 36.2063C73.6009 36.2063 74.9345 34.9967 75.0625 33.4023C75.1965 31.7247 73.9455 30.2564 72.2682 30.122Z" fill="black"/>
<path d="M141.91 55.7374C138.888 49.7643 132.163 44.6023 121.923 40.3952C113.637 36.9909 104.575 34.8404 98.4323 33.6354C94.7508 32.9136 90.8928 32.2689 86.9654 31.7198C85.2997 31.4846 83.7592 32.6485 83.5258 34.3155C83.2927 35.9821 84.4548 37.5217 86.1214 37.7548C89.9392 38.2886 93.6865 38.9147 97.2596 39.6155C118.189 43.7199 132.481 50.5989 136.473 58.4878C137.311 60.1456 137.719 61.9308 137.719 63.9454C137.719 74.0004 129.538 82.1809 119.483 82.1809C109.316 82.1809 99.4433 83.8424 89.3002 87.2607C84.9316 88.7333 80.6898 90.4934 76.5878 92.196C73.8745 93.3218 71.069 94.4864 68.2841 95.5415C61.2565 98.2051 55.8699 99.3416 50.2737 99.3416C32.6329 99.3416 18.2809 84.9899 18.2809 67.3494C18.2809 49.7086 32.6329 35.3566 50.2737 35.3566C53.7152 35.3566 57.209 35.4218 60.6575 35.5503C61.2428 35.572 61.8287 35.5954 62.4149 35.6213C64.0947 35.6975 65.5191 34.3928 65.5931 32.7116C65.6675 31.0306 64.3646 29.6074 62.6837 29.5334C62.0834 29.5069 61.4832 29.4828 60.8842 29.4606C57.3605 29.3292 53.7904 29.2628 50.2734 29.2628C29.2725 29.2628 12.1869 46.3482 12.1869 67.3494C12.1869 88.35 29.2722 105.435 50.2734 105.435C56.6521 105.435 62.6843 104.181 70.4434 101.24C73.3169 100.151 76.167 98.968 78.9235 97.8239C82.9311 96.1609 87.0751 94.441 91.2463 93.0351C100.752 89.8316 109.988 88.2744 119.483 88.2744C132.898 88.275 143.812 77.3608 143.812 63.9457C143.812 60.9531 143.19 58.2682 141.91 55.7374Z" fill="black"/>
<path d="M53.1917 41.3827C44.6739 41.3827 37.7438 47.6668 37.7438 55.3913C37.7438 63.1157 44.6739 69.3999 53.1917 69.3999C61.7099 69.3999 68.6397 63.1157 68.6397 55.3913C68.6397 47.6668 61.7099 41.3827 53.1917 41.3827ZM53.1917 63.3058C48.0337 63.3058 43.8375 59.7553 43.8375 55.391C43.8375 51.0269 48.0337 47.4761 53.1917 47.4761C58.3498 47.4761 62.5459 51.0266 62.5459 55.391C62.5459 59.7553 58.3498 63.3058 53.1917 63.3058Z" fill="black"/>
</svg>
