<svg width="156" height="156" viewBox="0 0 156 156" fill="none" xmlns="http://www.w3.org/2000/svg">
<g clip-path="url(#clip0)">
<path d="M113.133 51.497C111.695 47.041 107.908 44.125 102.573 43.2645C104.035 40.6044 105.035 36.5471 103.733 32.0351C101.535 24.4191 94.2349 24.3203 90.2662 24.287C91.9417 21.0675 93.5874 15.983 92.4223 10.9211C91.6209 7.43985 89.0343 2.88024 81.2639 0.931905C76.625 -0.230908 71.7274 -0.0571411 69.2207 0.149952C67.9948 0.252308 67.005 1.20089 66.8655 2.40536C66.7248 3.62411 67.4522 4.74288 68.6364 5.12612C70.4371 5.70694 72.7124 6.94354 73.3158 9.52744C74.0492 12.6695 73.0045 17.1018 58.2853 23.5443C53.303 25.7247 50.2537 28.8049 49.2246 32.698C48.0118 37.2814 49.9282 41.7922 51.8195 44.8415C50.2478 45.2783 48.4578 46.0233 46.8515 47.1504C43.683 49.3749 41.9968 52.4884 41.9765 56.1554C41.9515 60.7198 43.4731 63.7643 45.2774 65.7697C44.99 66.3232 44.8254 66.9492 44.8254 67.6133V70.5757C44.8254 75.9934 48.5139 80.5661 53.5153 81.9289L56.778 94.07C56.778 94.0712 56.7792 94.0712 56.7792 94.0724L67.4462 133.772C67.4474 133.773 67.4474 133.775 67.4474 133.777L72.2556 151.669C72.9521 154.259 75.2262 156 77.9129 156C80.6009 156 82.875 154.259 83.5702 151.668L102.311 81.9289C107.313 80.5661 111.002 75.9934 111.002 70.5757V67.6133C111.002 66.9718 110.847 66.3672 110.578 65.8292C113.191 63.187 115.453 58.681 113.133 51.497ZM79.1472 150.485C78.9182 151.337 78.2087 151.429 77.9141 151.429C77.6196 151.429 76.9088 151.337 76.6799 150.485L73.1023 137.171C75.9679 138.374 78.8789 139.509 81.8137 140.562L79.1472 150.485ZM86.8628 121.769C86.1842 121.518 85.5069 121.265 84.8403 121.009C83.6597 120.556 82.3348 121.143 81.8804 122.321C81.4261 123.5 82.014 124.822 83.1958 125.276C84.0115 125.589 84.8403 125.898 85.6726 126.201L83.005 136.13C79.1377 134.732 75.3109 133.191 71.589 131.536L68.1045 118.568C69.7538 119.407 71.4209 120.218 73.0904 120.996C73.404 121.141 73.7332 121.21 74.0563 121.21C74.9197 121.21 75.7461 120.721 76.1337 119.889C76.668 118.744 76.1719 117.383 75.0247 116.851C72.1424 115.511 69.2767 114.062 66.4863 112.545L62.7716 98.7213C71.1025 104.006 80.0607 108.449 89.4982 111.967L86.8628 121.769ZM90.6884 107.532C80.0762 103.538 70.0972 98.3368 60.9792 92.0538L58.37 82.3455H64.2133C73.0248 88.6737 82.7891 93.8986 93.2785 97.8965L90.6884 107.532ZM94.471 93.4559C86.6469 90.4423 79.2474 86.7194 72.3749 82.3455H97.4571L94.471 93.4559ZM106.195 63.5881H67.587C66.3217 63.5881 65.2961 64.6105 65.2961 65.8733C65.2961 67.1361 66.3217 68.1596 67.587 68.1596H106.421V70.5757C106.421 74.2189 103.694 77.2372 100.17 77.7073C100.169 77.7085 100.168 77.7073 100.166 77.7085C100.005 77.7287 99.8457 77.7454 99.6895 77.7561C99.6847 77.7561 99.6787 77.7573 99.674 77.7573C99.5153 77.768 99.3603 77.7728 99.2101 77.7728H56.6182C56.4668 77.7728 56.3117 77.768 56.1531 77.7573C56.1483 77.7573 56.1436 77.7561 56.1376 77.7561C55.9814 77.7454 55.8228 77.7299 55.6618 77.7085C55.6594 77.7073 55.6582 77.7085 55.657 77.7073C52.1332 77.2372 49.4059 74.2189 49.4059 70.5757V68.1596H56.8567C58.122 68.1596 59.1475 67.1361 59.1475 65.8733C59.1475 64.6105 58.122 63.5881 56.8567 63.5881H49.6098C47.5658 61.9588 46.5391 59.4701 46.557 56.1804C46.5856 50.9686 52.4933 49.1631 54.5587 48.9417C54.6553 48.9322 54.7471 48.9119 54.8414 48.8929C55.7644 50.0236 56.8126 51.2411 57.6306 52.0088C58.0731 52.423 58.6359 52.6277 59.1988 52.6277C59.8094 52.6277 60.4176 52.3861 60.8683 51.9076C61.7341 50.9864 61.69 49.5403 60.767 48.6763C59.522 47.5087 57.1942 44.5249 56.3714 43.4311C54.9642 41.4078 52.7079 37.4385 53.6536 33.8644C54.3083 31.3864 56.4858 29.3226 60.1254 27.7302C69.4795 23.6359 79.939 17.7493 77.777 8.4884C77.4192 6.96139 76.7681 5.71289 75.9679 4.69409C80.936 5.10946 86.7602 6.73883 87.9587 11.9447C88.9294 16.1627 87.1883 20.4784 85.898 22.7373C85.0132 24.2001 82.1261 28.2098 79.177 29.5761C78.0298 30.1082 77.5313 31.4674 78.0644 32.6123C78.452 33.4454 79.2796 33.9358 80.1429 33.9358C80.4661 33.9358 80.7941 33.868 81.1065 33.7228C83.5118 32.6087 85.6381 30.539 87.1907 28.7002C87.2539 28.7121 87.3159 28.7287 87.3803 28.7359C88.2115 28.8418 89.1619 28.8489 90.1684 28.8573C94.7942 28.8965 98.1595 29.2369 99.3329 33.3002C100.316 36.7077 99.3615 39.713 98.4063 41.3257C97.9305 41.966 95.301 45.4175 91.8964 48.2061C90.9185 49.0071 90.7766 50.4473 91.5792 51.4232C92.0311 51.9743 92.6882 52.2599 93.35 52.2599C93.8616 52.2599 94.3756 52.0897 94.8013 51.741C96.5054 50.3449 98.0176 48.8274 99.2232 47.5016C99.4211 47.5468 99.6239 47.5753 99.8314 47.5837C103.168 47.7075 107.428 48.7298 108.774 52.8991C110.324 57.7026 109.481 61.2066 106.195 63.5881Z" fill="black"/>
</g>
<defs>
<clipPath id="clip0">
<rect width="156" height="156" fill="white"/>
</clipPath>
</defs>
</svg>
